<?xml version="1.0" encoding="utf-8" ?>
<!-- Generator: Adobe Illustrator 19.2.0, SVG Export Plug-In . SVG Version: 6.00 Build 0)  -->
<svg width="2000px" height="2000px" version="1.1" id="Layer_1" xmlns="http://www.w3.org/2000/svg" xmlns:xlink="http://www.w3.org/1999/xlink" x="0px" y="0px" viewBox="0 0 2000 2000" style="enable-background:new 0 0 2000 2000;" xml:space="preserve">
	<style type="text/css">
	.st0{clip-path:url(#SVGID_2_);fill:#FFFFFF;}
</style>
	<g>
		<g>
			<g>
				<defs>
					<path id="SVGID_1_" d="M1793.4,987.1c-13.2,0-24.1,4.3-32.2,13.2c-8.2,8.7-12.3,20.9-12.3,36.3c0,15.6,4.1,28.1,12.3,36.8
					c8.2,8.7,19,13.2,32.2,13.2c12.7,0,23.3-4.3,31.5-13.2c8.4-8.9,12.5-21.2,12.5-36.6c0-15.2-4.1-27.2-12.5-36.1
					C1816.8,991.7,1806.2,987.1,1793.4,987.1z M1764.1,913.1c16.8,0,31.5,3.6,44,11.1c12.5,7.5,21.6,17.6,27.7,30.3v-38.2h84.2
					v241.5h-84.2v-38.2c-6,13-15.2,23.1-27.7,30.3c-12.5,7.5-27.2,11.1-44,11.1c-19.2,0-36.6-4.8-52.2-14.9
					c-15.4-9.9-27.7-24.3-36.6-43.1c-8.9-18.8-13.2-40.9-13.2-66.1c0-25.3,4.3-47.1,13.2-65.9s21.2-32.9,36.6-42.8
					C1727.5,918.1,1744.8,913.1,1764.1,913.1z M1565.4,960.4c9.6-14.4,21.4-25.7,35.8-34.4c14.4-8.7,29.8-13,45.9-13v90.2h-24.8
					c-19,0-33.4,3.6-42.8,11.1c-9.6,7.5-14.4,20-14.4,38v103.9h-85.1v-241h85.4V960.4z M1361.7,1016.7c0.2-12.5-3.1-22.1-10.1-28.4
					c-7-6.5-15.6-9.6-26.2-9.6c-11.3,0-20.4,3.4-27.7,9.6c-7.2,6.5-11.3,15.9-12.3,28.4H1361.7z M1446.4,1032.3
					c0,6-0.7,12.5-2.2,19.7H1284c1.4,27.2,13.5,40.9,35.8,40.9c8.4,0,15.2-1.9,20.7-6c5.5-3.8,9.1-9.4,11.3-15.9h89.9
					c-3.1,16.8-10.3,32.2-21.2,45.7c-11.1,13.7-24.8,24.3-41.6,32c-16.6,7.7-34.9,11.5-54.8,11.5c-24.3,0-45.5-4.8-64.2-14.9
					c-18.5-9.9-33.2-24.3-43.5-43.1c-10.3-18.8-15.4-40.9-15.4-66.1c0-25.3,5.1-47.1,15.4-65.9s25-32.9,43.5-42.8
					c18.8-9.9,39.9-14.9,64-14.9c24.3,0,45.5,4.8,64,14.7c18.5,9.9,32.7,23.6,43.1,41.6C1441.3,987.6,1446.4,1008.5,1446.4,1032.3z
					 M1167.2,839.2v319.4h-84.7V839.2H1167.2z M919.4,987.1c-12.7,0-23.3,4.3-31.5,13.2c-8.4,8.9-12.5,20.9-12.5,36.1
					c0,15.4,4.1,27.7,12.5,36.6s19,13.2,31.5,13.2c13.2,0,24.1-4.3,32.2-13.2c8.2-8.7,12.3-20.9,12.3-36.8
					c0-15.4-4.1-27.7-12.3-36.3C943.5,991.7,932.7,987.1,919.4,987.1z M946.8,913.1c19.2,0,36.6,4.8,52.2,14.9
					c15.6,10.1,27.7,24.1,36.6,42.8c8.9,18.8,13.2,40.6,13.2,65.9c0,25.3-4.3,47.4-13.2,66.1s-21.2,33.2-36.6,43.1
					c-15.4,9.9-32.9,14.9-52.2,14.9c-16.8,0-31.5-3.6-43.8-11.1c-12.3-7.5-21.6-17.6-27.4-30.3v38.2h-84.9V839.2h84.7v115.4
					c6-13,15.2-23.1,27.4-30.3C915.1,916.7,930,913.1,946.8,913.1z M615.4,987.1c-13.2,0-24.1,4.3-32.2,13.2
					c-8.2,8.7-12.3,20.9-12.3,36.3c0,15.6,4.1,28.1,12.3,36.8s19,13.2,32.2,13.2c12.7,0,23.3-4.3,31.5-13.2
					c8.4-8.9,12.5-21.2,12.5-36.6c0-15.2-4.1-27.2-12.5-36.1C638.5,991.7,627.9,987.1,615.4,987.1z M588,913.1
					c16.8,0,31.5,3.6,44,11.1c12.5,7.5,21.6,17.6,27.7,30.3v-38.2h84.2v241.5h-84.2v-38.2c-6,13-15.2,23.1-27.7,30.3
					c-12.5,7.5-27.2,11.1-44,11.1c-19.2,0-36.6-4.8-52.2-14.9c-15.4-9.9-27.7-24.3-36.6-43.1c-8.9-18.8-13.2-40.9-13.2-66.1
					c0-25.3,4.3-47.1,13.2-65.9c8.9-18.8,21.2-32.9,36.6-42.8C551.5,918.1,568.8,913.1,588,913.1z M460.8,1086.2v72.4h-34.9
					c-29.8,0-52.9-7.5-69.5-22.1c-16.6-14.7-25-39-25-72.9v-76.2h-31v-70.7h31V858h85.1v58.7h43.8v70.7h-43.8v77.9
					c0,7.5,1.7,12.7,5.1,15.9c3.4,3.1,8.9,4.8,16.6,4.8h22.6V1086.2z M165,921.5v50.3h98.8v64.2H165v55.1h111.8v67.6H80.1V853.9
					h196.7v67.6H165L165,921.5z" />
				</defs>
				<clipPath id="SVGID_2_">
					<use xlink:href="#SVGID_1_" style="overflow:visible;" />
				</clipPath>
				<rect x="74.8" y="833.9" class="st0" width="1850.5" height="331.7" />
			</g>
		</g>
	</g>
</svg>