<?xml version="1.0" encoding="UTF-8" ?>
<svg preserveAspectRatio="none" width="1800px" height="315px" viewBox="0 0 1800 315" version="1.1" xmlns="http://www.w3.org/2000/svg" xmlns:xlink="http://www.w3.org/1999/xlink">
    <!-- Generator: Sketch 57.1 (83088) - https://sketch.com -->
    <title>Etablera</title>
    <desc>Created with Sketch.</desc>
    <g id="Page-1" stroke="none" stroke-width="1" fill="none" fill-rule="evenodd">
        <path d="M83.1261343,80.5493863 L83.1261343,129.783752 L179.754991,129.783752 L179.754991,192.483928 L83.1261343,192.483928 L83.1261343,246.347165 L192.413793,246.347165 L192.413793,312.413793 L0,312.413793 L0,14.4827586 L192.413793,14.4827586 L192.413793,80.5493863 L83.1261343,80.5493863 Z M372.413793,241.59996 L372.413793,312.413793 L338.175751,312.413793 C309.150763,312.413793 286.466526,305.248179 270.122358,290.916737 C253.77819,276.585294 245.606229,252.840417 245.606229,219.681393 L245.606229,145.073962 L215.172414,145.073962 L215.172414,75.9461733 L245.606229,75.9461733 L245.606229,18.6206897 L328.876529,18.6206897 L328.876529,75.9461733 L371.568409,75.9461733 L371.568409,145.073962 L328.876529,145.073962 L328.876529,221.367437 C328.876529,228.673662 330.496832,233.872245 333.737486,236.96334 C336.97814,240.054436 342.402632,241.59996 350.011123,241.59996 L372.413793,241.59996 Z M496.944828,72.4137931 C513.492037,72.4137931 527.865456,75.9921681 540.065517,83.1490255 C552.265578,90.3058829 561.310345,100.199037 567.2,112.828786 L567.2,75.3607196 L649.655172,75.3607196 L649.655172,311.535832 L567.2,311.535832 L567.2,274.067766 C561.310345,286.697514 552.265578,296.590669 540.065517,303.747526 C527.865456,310.904384 513.492037,314.482759 496.944828,314.482759 C478.153929,314.482759 461.186283,309.641428 446.041379,299.958621 C430.896476,290.275814 418.977055,276.24297 410.282759,257.85967 C401.588462,239.47637 397.241379,217.935956 397.241379,193.237781 C397.241379,168.539607 401.588462,147.069357 410.282759,128.826387 C418.977055,110.583417 430.896476,96.6207381 446.041379,86.937931 C461.186283,77.255124 478.153929,72.4137931 496.944828,72.4137931 Z M523.660219,144.827586 C510.660995,144.827586 500.134607,149.107287 492.08074,157.666816 C484.026873,166.226345 480,178.08322 480,193.237797 C480,208.673013 484.026873,220.670206 492.08074,229.229736 C500.134607,237.789265 510.660995,242.068966 523.660219,242.068966 C536.094259,242.068966 546.408706,237.719106 554.603869,229.019257 C562.799032,220.319407 566.896552,208.392373 566.896552,193.237797 C566.896552,178.363861 562.799032,166.577145 554.603869,157.877295 C546.408706,149.177446 536.094259,144.827586 523.660219,144.827586 Z M847.882759,72.4110234 C866.673657,72.4110234 883.641304,77.2524097 898.786207,86.9353275 C913.93111,96.6182453 925.850531,110.581084 934.544828,128.824263 C943.239124,147.067441 947.586207,168.537937 947.586207,193.236394 C947.586207,217.934851 943.239124,239.475512 934.544828,257.859022 C925.850531,276.242533 913.93111,290.275537 898.786207,299.958455 C883.641304,309.641372 866.673657,314.482759 847.882759,314.482759 C831.335549,314.482759 817.032244,310.904343 804.972414,303.747403 C792.912583,296.590464 783.93796,286.697197 778.048276,274.067304 L778.048276,311.535798 L695.172414,311.535798 L695.172414,0 L778.048276,0 L778.048276,112.826478 C783.93796,100.196586 792.912583,90.3033179 804.972414,83.1463786 C817.032244,75.9894394 831.335549,72.4110234 847.882759,72.4110234 Z M821.167368,144.827586 C808.733327,144.827586 798.41888,149.177446 790.223717,157.877295 C782.028554,166.577145 777.931034,178.363861 777.931034,193.237797 C777.931034,208.392373 782.028554,220.319407 790.223717,229.019257 C798.41888,237.719106 808.733327,242.068966 821.167368,242.068966 C834.166591,242.068966 844.692979,237.789265 852.746846,229.229736 C860.800713,220.670206 864.827586,208.673013 864.827586,193.237797 C864.827586,178.08322 860.800713,166.226345 852.746846,157.666816 C844.692979,149.107287 834.166591,144.827586 821.167368,144.827586 Z M1063.44828,0 L1063.44828,312.413793 L980.689655,312.413793 L980.689655,0 L1063.44828,0 Z M1336.55172,189.027886 C1336.55172,194.921769 1335.84751,201.376876 1334.43905,208.393403 L1177.67848,208.393403 C1179.08694,235.056205 1190.77697,248.387406 1212.74891,248.387406 C1220.91796,248.387406 1227.67846,246.422808 1233.0306,242.493553 C1238.38274,238.564298 1242.04467,233.372146 1244.01651,226.916942 L1331.90384,226.916942 C1328.80523,243.475945 1321.90389,258.420923 1311.19961,271.752324 C1300.49533,285.083725 1286.97434,295.538231 1270.63623,303.116042 C1254.29812,310.693891 1236.41098,314.482759 1216.97426,314.482759 C1193.31217,314.482759 1172.39689,309.641428 1154.22778,299.958621 C1136.05868,290.275814 1121.90389,276.24297 1111.76299,257.85967 C1101.6221,239.47637 1096.55172,217.935956 1096.55172,193.237781 C1096.55172,168.539607 1101.6221,147.069357 1111.76299,128.826387 C1121.90389,110.583417 1136.1291,96.6207381 1154.43905,86.937931 C1172.749,77.255124 1193.59386,72.4137931 1216.97426,72.4137931 C1240.63635,72.4137931 1261.48121,77.1849598 1279.50947,86.7274363 C1297.53773,96.2699128 1311.55167,109.881771 1321.55172,127.563418 C1331.55177,145.245066 1336.55172,165.733017 1336.55172,189.027886 Z M1253.77608,173.793103 C1254.05976,161.521936 1250.79749,152.247356 1243.98916,145.969084 C1237.18083,139.690813 1228.67054,136.551724 1218.45805,136.551724 C1207.39451,136.551724 1198.38779,139.690813 1191.43762,145.969084 C1184.48745,152.247356 1180.44507,161.521936 1179.31034,173.793103 L1253.77608,173.793103 Z M1453.07307,118.654807 C1462.38883,104.642308 1474.10391,93.4324778 1488.21869,85.0249787 C1502.33346,76.6174796 1517.2949,72.4137931 1533.10345,72.4137931 L1533.10345,160.692092 L1508.9673,160.692092 C1490.3358,160.692092 1476.36238,164.265226 1467.04663,171.4116 C1457.73088,178.557974 1453.07307,190.958849 1453.07307,208.614597 L1453.07307,310.344828 L1369.65517,310.344828 L1369.65517,74.5156574 L1453.07307,74.5156574 L1453.07307,118.654807 Z M1647.28966,72.4137931 C1663.83686,72.4137931 1678.21028,75.9921681 1690.41034,83.1490255 C1702.61041,90.3058829 1711.65517,100.199037 1717.54483,112.828786 L1717.54483,75.3607196 L1800,75.3607196 L1800,311.535832 L1717.54483,311.535832 L1717.54483,274.067766 C1711.65517,286.697514 1702.61041,296.590669 1690.41034,303.747526 C1678.21028,310.904384 1663.83686,314.482759 1647.28966,314.482759 C1628.49876,314.482759 1611.53111,309.641428 1596.38621,299.958621 C1581.2413,290.275814 1569.32188,276.24297 1560.62759,257.85967 C1551.93329,239.47637 1547.58621,217.935956 1547.58621,193.237781 C1547.58621,168.539607 1551.93329,147.069357 1560.62759,128.826387 C1569.32188,110.583417 1581.2413,96.6207381 1596.38621,86.937931 C1611.53111,77.255124 1628.49876,72.4137931 1647.28966,72.4137931 Z M1676.07401,144.827586 C1663.07479,144.827586 1652.5484,149.107287 1644.49453,157.666816 C1636.44067,166.226345 1632.41379,178.08322 1632.41379,193.237797 C1632.41379,208.673013 1636.44067,220.670206 1644.49453,229.229736 C1652.5484,237.789265 1663.07479,242.068966 1676.07401,242.068966 C1688.50805,242.068966 1698.8225,237.719106 1707.01766,229.019257 C1715.21282,220.319407 1719.31034,208.392373 1719.31034,193.237797 C1719.31034,178.363861 1715.21282,166.577145 1707.01766,157.877295 C1698.8225,149.177446 1688.50805,144.827586 1676.07401,144.827586 Z" id="Etablera" fill="#FFFFFF" fill-rule="nonzero"></path>
    </g>
</svg>