<?xml version="1.0" encoding="UTF-8" ?>
<svg width="2000px" height="2000px" viewBox="0 0 2000 2000" version="1.1" xmlns="http://www.w3.org/2000/svg" xmlns:xlink="http://www.w3.org/1999/xlink">
    <!-- Generator: Sketch 57.1 (83088) - https://sketch.com -->
    <title>Etablera</title>
    <desc>Created with Sketch.</desc>
    <g id="Page-1" stroke="none" stroke-width="1" fill="none" fill-rule="evenodd">
        <g id="Etablera">
            <path d="M906.696667,854 L906.696667,940.463186 C911.223356,930.784423 918.121065,923.202839 927.39,917.718206 C936.658935,912.233574 947.652159,909.491299 960.37,909.491299 C974.812294,909.491299 987.853275,913.201435 999.493333,920.621821 C1011.13339,928.042206 1020.29441,938.742456 1026.97667,952.722892 C1033.65892,966.703327 1037,983.156978 1037,1002.08434 C1037,1021.0117 1033.65892,1037.51912 1026.97667,1051.6071 C1020.29441,1065.69507 1011.13339,1076.44909 999.493333,1083.86948 C987.853275,1091.28986 974.812294,1095 960.37,1095 C947.652159,1095 936.658935,1092.25772 927.39,1086.77309 C918.121065,1081.28846 911.223356,1073.70688 906.696667,1064.02811 L906.696667,1092.74163 L843,1092.74163 L843,854 L906.696667,854 Z M939.839024,965 C930.395075,965 922.561007,968.354945 916.336585,975.064935 C910.112164,981.774925 907,990.865744 907,1002.33766 C907,1014.02603 910.112164,1023.22507 916.336585,1029.93506 C922.561007,1036.64506 930.395075,1040 939.839024,1040 C949.712244,1040 957.707286,1036.69917 963.82439,1030.0974 C969.941494,1023.49564 973,1014.24248 973,1002.33766 C973,990.649292 969.941494,981.504362 963.82439,974.902597 C957.707286,968.300833 949.712244,965 939.839024,965 Z" id="B" fill="#FFFFFF" fill-rule="nonzero"></path>
            <polygon id="L" fill="#FFFFFF" fill-rule="nonzero" points="1126 855 1126 1093 1062 1093 1062 855"></polygon>
            <path d="M1243.32394,910 C1261.46488,910 1277.44594,913.64634 1291.26761,920.93913 C1305.08927,928.231921 1315.8333,938.634715 1323.5,952.147826 C1331.16671,965.660937 1335,981.318752 1335,999.121739 C1335,1003.62611 1334.4601,1008.55939 1333.38028,1013.92174 L1213.19718,1013.92174 C1214.277,1034.29865 1223.23935,1044.48696 1240.08451,1044.48696 C1246.34745,1044.48696 1251.5305,1042.98552 1255.6338,1039.98261 C1259.73711,1036.9797 1262.54459,1033.01162 1264.05634,1028.07826 L1331.43662,1028.07826 C1329.06102,1040.7334 1323.76999,1052.15502 1315.56338,1062.34348 C1307.35677,1072.53193 1296.99067,1080.52171 1284.46479,1086.31304 C1271.9389,1092.10438 1258.22543,1095 1243.32394,1095 C1225.18301,1095 1209.14796,1091.30004 1195.21831,1083.9 C1181.28866,1076.49996 1170.43666,1065.77543 1162.66197,1051.72609 C1154.88729,1037.67674 1151,1021.21459 1151,1002.33913 C1151,983.463674 1154.88729,967.055142 1162.66197,953.113043 C1170.43666,939.170945 1181.34265,928.500037 1195.38028,921.1 C1209.41791,913.699963 1225.39897,910 1243.32394,910 Z M1242.95887,960 C1234.49219,960 1227.59955,962.36013 1222.28074,967.08046 C1216.96192,971.80079 1213.86838,978.7739 1213,988 L1269.98697,988 C1270.20407,978.7739 1267.70752,971.80079 1262.49726,967.08046 C1257.28699,962.36013 1250.77426,960 1242.95887,960 Z" id="E2" fill="#FFFFFF" fill-rule="nonzero"></path>
            <path d="M1423.79534,945.371025 C1430.91972,934.652479 1439.87905,926.077771 1450.67358,919.646643 C1461.4681,913.215516 1472.91013,910 1485,910 L1485,977.526502 L1466.54145,977.526502 C1452.29267,977.526502 1441.60625,980.25969 1434.48187,985.726148 C1427.35748,991.192607 1423.79534,1000.67838 1423.79534,1014.18375 L1423.79534,1092 L1360,1092 L1360,911.607774 L1423.79534,911.607774 L1423.79534,945.371025 Z" id="r" fill="#FFFFFF" fill-rule="nonzero"></path>
            <path d="M1573.025,910 C1585.8084,910 1596.91245,912.734755 1606.3375,918.204348 C1615.76255,923.67394 1622.74998,931.234734 1627.3,940.886957 L1627.3,912.252174 L1691,912.252174 L1691,1092.74783 L1627.3,1092.74783 L1627.3,1064.11304 C1622.74998,1073.76527 1615.76255,1081.32606 1606.3375,1086.79565 C1596.91245,1092.26524 1585.8084,1095 1573.025,1095 C1558.50826,1095 1545.40006,1091.30004 1533.7,1083.9 C1521.99994,1076.49996 1512.7917,1065.77543 1506.075,1051.72609 C1499.3583,1037.67674 1496,1021.21459 1496,1002.33913 C1496,983.463674 1499.3583,967.055142 1506.075,953.113043 C1512.7917,939.170945 1521.99994,928.500037 1533.7,921.1 C1545.40006,913.699963 1558.50826,910 1573.025,910 Z M1593.16098,965 C1583.28776,965 1575.29271,968.300833 1569.17561,974.902597 C1563.05851,981.504362 1560,990.649292 1560,1002.33766 C1560,1014.24248 1563.05851,1023.49564 1569.17561,1030.0974 C1575.29271,1036.69917 1583.28776,1040 1593.16098,1040 C1602.60493,1040 1610.43899,1036.64506 1616.66341,1029.93506 C1622.88784,1023.22507 1626,1014.02603 1626,1002.33766 C1626,990.865744 1622.88784,981.774925 1616.66341,975.064935 C1610.43899,968.354945 1602.60493,965 1593.16098,965 Z" id="A2" fill="#FFFFFF" fill-rule="nonzero"></path>
            <path d="M691.235,910 C703.887285,910 714.877453,912.734755 724.205833,918.204348 C733.534213,923.67394 740.449977,931.234734 744.953333,940.886957 L744.953333,912.252174 L808,912.252174 L808,1092.74783 L744.953333,1092.74783 L744.953333,1064.11304 C740.449977,1073.76527 733.534213,1081.32606 724.205833,1086.79565 C714.877453,1092.26524 703.887285,1095 691.235,1095 C676.86715,1095 663.893391,1091.30004 652.313333,1083.9 C640.733275,1076.49996 631.619478,1065.77543 624.971667,1051.72609 C618.323856,1037.67674 615,1021.21459 615,1002.33913 C615,983.463674 618.323856,967.055142 624.971667,953.113043 C631.619478,939.170945 640.733275,928.500037 652.313333,921.1 C663.893391,913.699963 676.86715,910 691.235,910 Z M712.160976,965 C702.287756,965 694.292714,968.300833 688.17561,974.902597 C682.058506,981.504362 679,990.649292 679,1002.33766 C679,1014.24248 682.058506,1023.49564 688.17561,1030.0974 C694.292714,1036.69917 702.287756,1040 712.160976,1040 C721.604925,1040 729.438993,1036.64506 735.663415,1029.93506 C741.887836,1023.22507 745,1014.02603 745,1002.33766 C745,990.865744 741.887836,981.774925 735.663415,975.064935 C729.438993,968.354945 721.604925,965 712.160976,965 Z" id="A1" fill="#FFFFFF" fill-rule="nonzero"></path>
            <path d="M595,1038.00861 L595,1092 L568.870968,1092 C546.720319,1092 529.408665,1086.53664 516.935484,1075.60976 C504.462303,1064.68287 498.225806,1046.5788 498.225806,1021.29699 L498.225806,964.413199 L475,964.413199 L475,911.707317 L498.225806,911.707317 L498.225806,868 L561.774194,868 L561.774194,911.707317 L594.354839,911.707317 L594.354839,964.413199 L561.774194,964.413199 L561.774194,1022.5825 C561.774194,1028.15306 563.01074,1032.11668 565.483871,1034.47346 C567.957002,1036.83024 572.096745,1038.00861 577.903226,1038.00861 L595,1038.00861 Z" id="T" fill="#FFFFFF" fill-rule="nonzero"></path>
            <polygon id="E" fill="#FFFFFF" fill-rule="nonzero" points="375.074561 915.337571 375.074561 952.850282 448.394737 952.850282 448.394737 1000.62288 375.074561 1000.62288 375.074561 1041.66243 458 1041.66243 458 1092 312 1092 312 865 458 865 458 915.337571"></polygon>
            <!-- <g id="Line" transform="translate(267.000000, 1121.000000)" stroke="#FFFFFF" stroke-linecap="square" stroke-width="2">
                <path d="M1,0 L0.5,24.6212121" fill="#D8D8D8"></path>
                <path d="M1,24 L1465,24" id="Line-2"></path>
                <path d="M1465.5,24.6290323 L1465.5,2.37096774" id="Line-3"></path>
            </g> -->
            <rect id="Rectangle" fill="none" fill-rule="nonzero" x="0" y="0" width="2000" height="2000"></rect>
        </g>
    </g>
</svg>