<?xml version="1.0" encoding="utf-8" ?>
<!-- Generator: Adobe Illustrator 19.2.0, SVG Export Plug-In . SVG Version: 6.00 Build 0)  -->
<svg width="800px" height="1000px" version="1.1" id="Layer_1" xmlns="http://www.w3.org/2000/svg" xmlns:xlink="http://www.w3.org/1999/xlink" x="0px" y="0px" viewBox="0 0 800 1000" style="enable-background:new 0 0 800 1000;" xml:space="preserve">
	<style type="text/css">
	.st0{clip-path:url(#SVGID_2_);fill:#FFFFFF;}
</style>
	<g>
		<g>
			<g>
				<defs>
					<path id="SVGID_1_" d="M587.5,497.2c-2.8,0-5.2,0.9-6.9,2.8c-1.8,1.9-2.6,4.5-2.6,7.8c0,3.4,0.9,6,2.6,7.9
					c1.8,1.9,4.1,2.8,6.9,2.8c2.7,0,5-0.9,6.8-2.8c1.8-1.9,2.7-4.5,2.7-7.9c0-3.3-0.9-5.8-2.7-7.7
					C592.5,498.2,590.2,497.2,587.5,497.2z M581.2,481.3c3.6,0,6.8,0.8,9.5,2.4c2.7,1.6,4.6,3.8,5.9,6.5V482h18.1v51.9h-18.1v-8.2
					c-1.3,2.8-3.3,5-5.9,6.5c-2.7,1.6-5.8,2.4-9.5,2.4c-4.1,0-7.9-1-11.2-3.2c-3.3-2.1-5.9-5.2-7.9-9.2c-1.9-4-2.8-8.8-2.8-14.2
					s0.9-10.1,2.8-14.2c1.9-4,4.5-7.1,7.9-9.2C573.3,482.4,577,481.3,581.2,481.3z M538.5,491.5c2.1-3.1,4.6-5.5,7.7-7.4
					s6.4-2.8,9.9-2.8v19.4h-5.3c-4.1,0-7.2,0.8-9.2,2.4c-2.1,1.6-3.1,4.3-3.1,8.2v22.3h-18.3v-51.8h18.3V491.5z M494.7,503.6
					c0.1-2.7-0.7-4.8-2.2-6.1c-1.5-1.4-3.4-2.1-5.6-2.1c-2.4,0-4.4,0.7-5.9,2.1c-1.5,1.4-2.4,3.4-2.6,6.1H494.7z M512.9,506.9
					c0,1.3-0.2,2.7-0.5,4.2h-34.4c0.3,5.8,2.9,8.8,7.7,8.8c1.8,0,3.3-0.4,4.4-1.3c1.2-0.8,2-2,2.4-3.4h19.3
					c-0.7,3.6-2.2,6.9-4.5,9.8c-2.4,2.9-5.3,5.2-8.9,6.9c-3.6,1.7-7.5,2.5-11.8,2.5c-5.2,0-9.8-1-13.8-3.2c-4-2.1-7.1-5.2-9.3-9.2
					c-2.2-4-3.3-8.8-3.3-14.2s1.1-10.1,3.3-14.2c2.2-4,5.4-7.1,9.3-9.2c4-2.1,8.6-3.2,13.7-3.2c5.2,0,9.8,1,13.7,3.2
					c4,2.1,7,5.1,9.2,8.9C511.8,497.3,512.9,501.8,512.9,506.9z M453,465.5v68.6h-18.2v-68.6H453z M399.8,497.2
					c-2.7,0-5,0.9-6.8,2.8c-1.8,1.9-2.7,4.5-2.7,7.7c0,3.3,0.9,5.9,2.7,7.9s4.1,2.8,6.8,2.8c2.8,0,5.2-0.9,6.9-2.8
					c1.8-1.9,2.6-4.5,2.6-7.9c0-3.3-0.9-5.9-2.6-7.8C404.9,498.2,402.6,497.2,399.8,497.2z M405.7,481.3c4.1,0,7.9,1,11.2,3.2
					c3.4,2.2,5.9,5.2,7.9,9.2c1.9,4,2.8,8.7,2.8,14.2c0,5.4-0.9,10.2-2.8,14.2s-4.5,7.1-7.9,9.2s-7.1,3.2-11.2,3.2
					c-3.6,0-6.8-0.8-9.4-2.4c-2.6-1.6-4.6-3.8-5.9-6.5v8.2h-18.2v-68.4h18.2v24.8c1.3-2.8,3.3-5,5.9-6.5
					C398.8,482.1,402,481.3,405.7,481.3z M334.5,497.2c-2.8,0-5.2,0.9-6.9,2.8c-1.8,1.9-2.6,4.5-2.6,7.8c0,3.4,0.9,6,2.6,7.9
					c1.8,1.9,4.1,2.8,6.9,2.8c2.7,0,5-0.9,6.8-2.8c1.8-1.9,2.7-4.5,2.7-7.9c0-3.3-0.9-5.8-2.7-7.7
					C339.4,498.2,337.2,497.2,334.5,497.2z M328.6,481.3c3.6,0,6.8,0.8,9.5,2.4c2.7,1.6,4.6,3.8,5.9,6.5V482h18.1v51.9H344v-8.2
					c-1.3,2.8-3.3,5-5.9,6.5c-2.7,1.6-5.8,2.4-9.5,2.4c-4.1,0-7.9-1-11.2-3.2c-3.3-2.1-5.9-5.2-7.9-9.2c-1.9-4-2.8-8.8-2.8-14.2
					s0.9-10.1,2.8-14.2c1.9-4,4.5-7.1,7.9-9.2C320.7,482.4,324.5,481.3,328.6,481.3z M301.3,518.5v15.5h-7.5
					c-6.4,0-11.4-1.6-14.9-4.8c-3.6-3.2-5.4-8.4-5.4-15.6v-16.4h-6.7v-15.2h6.7v-12.6h18.3v12.6h9.4v15.2h-9.4V514
					c0,1.6,0.4,2.7,1.1,3.4c0.7,0.7,1.9,1,3.6,1L301.3,518.5L301.3,518.5z M237.7,483.1v10.8H259v13.8h-21.2v11.8h24v14.5h-42.2
					v-65.4h42.2v14.5H237.7L237.7,483.1z" />
				</defs>
				<clipPath id="SVGID_2_">
					<use xlink:href="#SVGID_1_" style="overflow:visible;" />
				</clipPath>
				<rect x="218.4" y="464.3" class="st0" width="397.4" height="71.2" />
			</g>
		</g>
	</g>
</svg>