<?xml version="1.0" encoding="UTF-8" ?>
<svg width="2000px" height="2000px" viewBox="0 0 2000 2000" version="1.1" xmlns="http://www.w3.org/2000/svg" xmlns:xlink="http://www.w3.org/1999/xlink">
    <!-- Generator: Sketch 57.1 (83088) - https://sketch.com -->
    <title>Group</title>
    <desc>Created with Sketch.</desc>
    <g id="Page-1" stroke="none" stroke-width="1" fill="none" fill-rule="evenodd">
        <g id="Group">
            <rect id="Rectangle" fill="none" x="0" y="0" width="2000" height="2000"></rect>
            <path d="M173.926,914.274 L173.926,964.116 L271.48,964.116 L271.48,1027.59 L173.926,1027.59 L173.926,1082.118 L284.26,1082.118 L284.26,1149 L90.004,1149 L90.004,847.392 L284.26,847.392 L284.26,914.274 L173.926,914.274 Z M464.884,1077.432 L464.884,1149 L430.378,1149 C401.125854,1149 378.264082,1141.75807 361.792,1127.274 C345.319918,1112.78993 337.084,1088.79217 337.084,1055.28 L337.084,979.878 L306.412,979.878 L306.412,910.014 L337.084,910.014 L337.084,852.078 L421.006,852.078 L421.006,910.014 L464.032,910.014 L464.032,979.878 L421.006,979.878 L421.006,1056.984 C421.006,1064.36804 422.638984,1069.62198 425.905,1072.746 C429.171016,1075.87002 434.637962,1077.432 442.306,1077.432 L464.884,1077.432 Z M591.832,907.032 C608.588084,907.032 623.142938,910.652964 635.497,917.895 C647.851062,925.137036 657.00997,935.147936 662.974,947.928 L662.974,910.014 L746.47,910.014 L746.47,1149 L662.974,1149 L662.974,1111.086 C657.00997,1123.86606 647.851062,1133.87696 635.497,1141.119 C623.142938,1148.36104 608.588084,1151.982 591.832,1151.982 C572.803905,1151.982 555.622077,1147.08305 540.286,1137.285 C524.949923,1127.48695 512.880044,1113.28709 504.076,1094.685 C495.271956,1076.08291 490.87,1054.28612 490.87,1029.294 C490.87,1004.30188 495.271956,982.576092 504.076,964.116 C512.880044,945.655908 524.949923,931.527049 540.286,921.729 C555.622077,911.930951 572.803905,907.032 591.832,907.032 Z M619.522,980.304 C606.457935,980.304 595.87904,984.634957 587.785,993.297 C579.69096,1001.95904 575.644,1013.95792 575.644,1029.294 C575.644,1044.91408 579.69096,1057.05496 587.785,1065.717 C595.87904,1074.37904 606.457935,1078.71 619.522,1078.71 C632.018062,1078.71 642.383959,1074.30804 650.62,1065.504 C658.856041,1056.69996 662.974,1044.63008 662.974,1029.294 C662.974,1014.24192 658.856041,1002.31404 650.62,993.51 C642.383959,984.705956 632.018062,980.304 619.522,980.304 Z M947.116,907.032 C966.144095,907.032 983.325923,911.930951 998.662,921.729 C1013.99808,931.527049 1026.06796,945.655908 1034.872,964.116 C1043.67604,982.576092 1048.078,1004.30188 1048.078,1029.294 C1048.078,1054.28612 1043.67604,1076.08291 1034.872,1094.685 C1026.06796,1113.28709 1013.99808,1127.48695 998.662,1137.285 C983.325923,1147.08305 966.144095,1151.982 947.116,1151.982 C930.359916,1151.982 915.876061,1148.36104 903.664,1141.119 C891.451939,1133.87696 882.36403,1123.86606 876.4,1111.086 L876.4,1149 L792.478,1149 L792.478,833.76 L876.4,833.76 L876.4,947.928 C882.36403,935.147936 891.451939,925.137036 903.664,917.895 C915.876061,910.652964 930.359916,907.032 947.116,907.032 Z M919.426,980.304 C906.929938,980.304 896.564041,984.705956 888.328,993.51 C880.091959,1002.31404 875.974,1014.24192 875.974,1029.294 C875.974,1044.63008 880.091959,1056.69996 888.328,1065.504 C896.564041,1074.30804 906.929938,1078.71 919.426,1078.71 C932.490065,1078.71 943.06896,1074.37904 951.163,1065.717 C959.25704,1057.05496 963.304,1044.91408 963.304,1029.294 C963.304,1013.95792 959.25704,1001.95904 951.163,993.297 C943.06896,984.634957 932.490065,980.304 919.426,980.304 Z M1165.654,833.76 L1165.654,1149 L1081.732,1149 L1081.732,833.76 L1165.654,833.76 Z M1441.702,1025.034 C1441.702,1030.99803 1440.99201,1037.52996 1439.572,1044.63 L1281.526,1044.63 C1282.94601,1071.61013 1294.73189,1085.1 1316.884,1085.1 C1325.12004,1085.1 1331.93597,1083.11202 1337.332,1079.136 C1342.72803,1075.15998 1346.41999,1069.90603 1348.408,1063.374 L1437.016,1063.374 C1433.89198,1080.13008 1426.93405,1095.25293 1416.142,1108.743 C1405.34995,1122.23307 1391.71808,1132.81196 1375.246,1140.48 C1358.77392,1148.14804 1340.7401,1151.982 1321.144,1151.982 C1297.28788,1151.982 1276.20109,1147.08305 1257.883,1137.285 C1239.56491,1127.48695 1225.29405,1113.28709 1215.07,1094.685 C1204.84595,1076.08291 1199.734,1054.28612 1199.734,1029.294 C1199.734,1004.30188 1204.84595,982.576092 1215.07,964.116 C1225.29405,945.655908 1239.63591,931.527049 1258.096,921.729 C1276.55609,911.930951 1297.57188,907.032 1321.144,907.032 C1345.00012,907.032 1366.01591,911.859952 1384.192,921.516 C1402.36809,931.172048 1416.49695,944.945911 1426.579,962.838 C1436.66105,980.730089 1441.702,1001.46188 1441.702,1025.034 Z M1356.502,1009.698 C1356.786,997.485939 1353.52003,988.256031 1346.704,982.008 C1339.88797,975.759969 1331.36805,972.636 1321.144,972.636 C1310.06794,972.636 1301.05103,975.759969 1294.093,982.008 C1287.13497,988.256031 1283.08801,997.485939 1281.952,1009.698 L1356.502,1009.698 Z M1559.278,954.744 C1568.65005,940.543929 1580.43593,929.184043 1594.636,920.664 C1608.83607,912.143957 1623.88792,907.884 1639.792,907.884 L1639.792,997.344 L1615.51,997.344 C1596.76591,997.344 1582.70805,1000.96496 1573.336,1008.207 C1563.96395,1015.44904 1559.278,1028.01591 1559.278,1045.908 L1559.278,1149 L1475.356,1149 L1475.356,910.014 L1559.278,910.014 L1559.278,954.744 Z M1756.09,907.032 C1772.84608,907.032 1787.40094,910.652964 1799.755,917.895 C1812.10906,925.137036 1821.26797,935.147936 1827.232,947.928 L1827.232,910.014 L1910.728,910.014 L1910.728,1149 L1827.232,1149 L1827.232,1111.086 C1821.26797,1123.86606 1812.10906,1133.87696 1799.755,1141.119 C1787.40094,1148.36104 1772.84608,1151.982 1756.09,1151.982 C1737.0619,1151.982 1719.88008,1147.08305 1704.544,1137.285 C1689.20792,1127.48695 1677.13804,1113.28709 1668.334,1094.685 C1659.52996,1076.08291 1655.128,1054.28612 1655.128,1029.294 C1655.128,1004.30188 1659.52996,982.576092 1668.334,964.116 C1677.13804,945.655908 1689.20792,931.527049 1704.544,921.729 C1719.88008,911.930951 1737.0619,907.032 1756.09,907.032 Z M1783.78,980.304 C1770.71593,980.304 1760.13704,984.634957 1752.043,993.297 C1743.94896,1001.95904 1739.902,1013.95792 1739.902,1029.294 C1739.902,1044.91408 1743.94896,1057.05496 1752.043,1065.717 C1760.13704,1074.37904 1770.71593,1078.71 1783.78,1078.71 C1796.27606,1078.71 1806.64196,1074.30804 1814.878,1065.504 C1823.11404,1056.69996 1827.232,1044.63008 1827.232,1029.294 C1827.232,1014.24192 1823.11404,1002.31404 1814.878,993.51 C1806.64196,984.705956 1796.27606,980.304 1783.78,980.304 Z" id="Etablera" fill="#FFFFFF" fill-rule="nonzero"></path>
        </g>
    </g>
</svg>