<?xml version="1.0" encoding="utf-8"?>
<!-- Generator: Adobe Illustrator 19.2.0, SVG Export Plug-In . SVG Version: 6.00 Build 0)  -->
<svg version="1.1" id="Layer_1" xmlns="http://www.w3.org/2000/svg" xmlns:xlink="http://www.w3.org/1999/xlink" x="0px" y="0px"
	 viewBox="0 0 1600 1200" style="enable-background:new 0 0 1600 1200;" xml:space="preserve">
<style type="text/css">
	.st0{clip-path:url(#SVGID_2_);fill:#FFFFFF;}
</style>
<title>Custom Preset</title>
<desc>Created with Sketch.</desc>
<g>
	<defs>
		<path id="SVGID_1_" d="M1480.8,589.1c-11.4,0-20.6,3.8-27.7,11.3c-7.1,7.5-10.6,17.9-10.6,31.2c0,13.5,3.5,24.1,10.6,31.6
			c7.1,7.5,16.3,11.3,27.7,11.3c10.9,0,20-3.8,27.1-11.4c7.2-7.6,10.8-18.1,10.8-31.4c0-13-3.6-23.4-10.8-31
			C1500.7,592.9,1491.7,589.1,1480.8,589.1z M1455.5,525.6c14.5,0,27.1,3.1,37.8,9.4c10.7,6.3,18.6,15,23.8,26v-32.9h72.3v207.2
			h-72.3v-32.9c-5.2,11.1-13.1,19.8-23.8,26c-10.7,6.3-23.3,9.4-37.8,9.4c-16.5,0-31.4-4.2-44.7-12.7c-13.3-8.5-23.7-20.8-31.4-36.9
			c-7.6-16.1-11.4-35-11.4-56.7s3.8-40.5,11.4-56.5c7.6-16,18.1-28.3,31.4-36.7C1424.2,529.8,1439.1,525.6,1455.5,525.6z
			 M1285.2,566.2c8.2-12.3,18.4-22.1,30.8-29.5c12.4-7.4,25.5-11.1,39.4-11.1V603h-21.2c-16.3,0-28.6,3.1-36.8,9.4
			c-8.2,6.3-12.3,17.1-12.3,32.6v89.2H1212V527.4h73.2V566.2z M1110.3,614.5c0.2-10.8-2.6-18.9-8.6-24.4c-6-5.5-13.4-8.3-22.4-8.3
			c-9.7,0-17.6,2.8-23.7,8.3c-6.1,5.5-9.6,13.6-10.6,24.4H1110.3z M1183,627.9c0,5.2-0.6,10.8-1.9,17h-137.5
			c1.2,23.4,11.5,35.1,30.8,35.1c7.2,0,13.1-1.7,17.8-5.2c4.7-3.4,7.9-8,9.6-13.7h77.1c-2.7,14.5-8.8,27.6-18.2,39.3
			c-9.4,11.7-21.3,20.9-35.6,27.5c-14.3,6.6-30,10-47.1,10c-20.8,0-39.1-4.2-55-12.7c-15.9-8.5-28.4-20.8-37.3-36.9
			c-8.9-16.1-13.3-35-13.3-56.7s4.4-40.5,13.3-56.5c8.9-16,21.4-28.3,37.4-36.7c16.1-8.5,34.3-12.7,54.9-12.7
			c20.8,0,39,4.2,54.9,12.6c15.8,8.4,28.1,20.3,36.9,35.8C1178.6,589.5,1183,607.4,1183,627.9z M943.4,462.1v274.1h-72.6V462.1
			H943.4z M730.8,589.1c-10.9,0-20,3.8-27.1,11.4c-7.2,7.6-10.8,18-10.8,31c0,13.3,3.6,23.8,10.8,31.4c7.2,7.6,16.2,11.4,27.1,11.4
			c11.4,0,20.6-3.8,27.7-11.3c7.1-7.5,10.6-18,10.6-31.6c0-13.3-3.5-23.7-10.6-31.2C751.5,592.9,742.2,589.1,730.8,589.1z
			 M754.3,525.6c16.5,0,31.4,4.2,44.7,12.7c13.3,8.5,23.7,20.7,31.4,36.7c7.6,16,11.4,34.8,11.4,56.5c0,21.7-3.8,40.6-11.4,56.7
			s-18.1,28.4-31.4,36.9c-13.3,8.5-28.2,12.7-44.7,12.7c-14.5,0-27.1-3.1-37.6-9.4c-10.6-6.3-18.5-15-23.6-26v32.9h-72.7V462.1H693
			v99c5.2-11.1,13-19.8,23.6-26C727.2,528.7,739.8,525.6,754.3,525.6z M469.9,589.1c-11.4,0-20.6,3.8-27.7,11.3
			c-7.1,7.5-10.6,17.9-10.6,31.2c0,13.5,3.5,24.1,10.6,31.6c7.1,7.5,16.3,11.3,27.7,11.3c10.9,0,20-3.8,27.1-11.4
			c7.2-7.6,10.8-18.1,10.8-31.4c0-13-3.6-23.4-10.8-31C489.8,592.9,480.8,589.1,469.9,589.1z M446.4,525.6c14.5,0,27.1,3.1,37.8,9.4
			c10.7,6.3,18.6,15,23.8,26v-32.9h72.3v207.2h-72.3v-32.9c-5.2,11.1-13.1,19.8-23.8,26c-10.7,6.3-23.3,9.4-37.8,9.4
			c-16.5,0-31.4-4.2-44.7-12.7c-13.3-8.5-23.7-20.8-31.4-36.9c-7.6-16.1-11.4-35-11.4-56.7s3.8-40.5,11.4-56.5
			c7.6-16,18.1-28.3,31.4-36.7C415.1,529.8,429.9,525.6,446.4,525.6z M337.2,674v62.1h-30c-25.5,0-45.4-6.3-59.7-18.9
			c-14.3-12.6-21.5-33.4-21.5-62.5v-65.4h-26.7v-60.6H226v-50.3h73v50.3h37.5v60.6H299v66.9c0,6.4,1.4,11,4.3,13.7
			c2.8,2.7,7.6,4.1,14.3,4.1H337.2z M83.4,532.7v43.2h84.8v55H83.4v47.3h95.9v58H10.5V474.8h168.8v58H83.4z"/>
	</defs>
	<clipPath id="SVGID_2_">
		<use xlink:href="#SVGID_1_"  style="overflow:visible;"/>
	</clipPath>
	<rect x="6.1" y="457.7" class="st0" width="1587.8" height="284.6"/>
</g>
</svg>
