<?xml version="1.0" encoding="utf-8" ?>
<!-- Generator: Adobe Illustrator 19.2.0, SVG Export Plug-In . SVG Version: 6.00 Build 0)  -->
<svg width="1600px" height="1200px" version="1.1" id="Layer_1" xmlns="http://www.w3.org/2000/svg" xmlns:xlink="http://www.w3.org/1999/xlink" x="0px" y="0px" viewBox="0 0 1600 1200" style="enable-background:new 0 0 1600 1200;" xml:space="preserve">
	<style type="text/css">
	.st0{clip-path:url(#SVGID_2_);fill:#FFFFFF;}
</style>
	<title>Custom Preset</title>
	<desc>Created with Sketch.</desc>
	<g>
		<g>
			<defs>
				<path id="SVGID_1_" d="M1251.2,586.3c-7.2,0-13,2.4-17.4,7.1c-4.5,4.7-6.7,11.3-6.7,19.6c0,8.5,2.2,15.2,6.7,19.9
				c4.5,4.7,10.3,7.1,17.4,7.1c6.9,0,12.6-2.4,17.1-7.2c4.5-4.8,6.8-11.4,6.8-19.8c0-8.2-2.3-14.7-6.8-19.5
				C1263.8,588.7,1258.1,586.3,1251.2,586.3z M1235.3,546.3c9.1,0,17.1,2,23.8,5.9c6.7,4,11.7,9.4,15,16.4v-20.7h45.5v130.5h-45.5
				v-20.7c-3.3,7-8.2,12.5-15,16.4c-6.7,4-14.7,5.9-23.8,5.9c-10.4,0-19.8-2.6-28.1-8c-8.4-5.4-14.9-13.1-19.8-23.2
				c-4.8-10.1-7.2-22-7.2-35.7s2.4-25.5,7.2-35.6c4.8-10.1,11.4-17.8,19.8-23.1C1215.6,548.9,1225,546.3,1235.3,546.3z
				 M1128.1,571.9c5.2-7.7,11.6-13.9,19.4-18.6s16.1-7,24.8-7V595h-13.3c-10.3,0-18,2-23.2,5.9c-5.2,4-7.7,10.8-7.7,20.5v56.2h-46
				V547.4h46.1V571.9z M1018,602.3c0.1-6.8-1.6-11.9-5.4-15.4s-8.4-5.2-14.1-5.2c-6.1,0-11.1,1.8-14.9,5.2s-6,8.6-6.7,15.4H1018z
				 M1063.7,610.7c0,3.3-0.4,6.8-1.2,10.7H976c0.8,14.7,7.2,22.1,19.4,22.1c4.5,0,8.2-1.1,11.2-3.3c3-2.1,5-5,6-8.6h48.5
				c-1.7,9.1-5.5,17.4-11.5,24.7c-5.9,7.4-13.4,13.2-22.4,17.3s-18.9,6.3-29.7,6.3c-13.1,0-24.6-2.6-34.6-8
				c-10-5.4-17.9-13.1-23.5-23.2c-5.6-10.1-8.4-22-8.4-35.7s2.8-25.5,8.4-35.6c5.6-10.1,13.5-17.8,23.5-23.1c10.1-5.4,21.6-8,34.6-8
				c13.1,0,24.6,2.6,34.6,7.9c9.9,5.3,17.7,12.8,23.2,22.5C1061,586.5,1063.7,597.8,1063.7,610.7z M912.9,506.3v172.6h-45.7V506.3
				H912.9z M779,586.3c-6.9,0-12.6,2.4-17.1,7.2c-4.5,4.8-6.8,11.3-6.8,19.5c0,8.4,2.3,15,6.8,19.8s10.2,7.2,17.1,7.2
				c7.2,0,13-2.4,17.4-7.1c4.5-4.7,6.7-11.3,6.7-19.9c0-8.4-2.2-14.9-6.7-19.6C792,588.7,786.2,586.3,779,586.3z M793.8,546.3
				c10.4,0,19.8,2.6,28.1,8c8.4,5.4,14.9,13,19.8,23.1c4.8,10.1,7.2,21.9,7.2,35.6c0,13.7-2.4,25.6-7.2,35.7
				c-4.8,10.1-11.4,17.9-19.8,23.2c-8.4,5.4-17.8,8-28.1,8c-9.1,0-17.1-2-23.7-5.9c-6.7-4-11.6-9.4-14.9-16.4v20.7h-45.8v-172h45.7
				v62.3c3.3-7,8.2-12.5,14.9-16.4C776.7,548.2,784.7,546.3,793.8,546.3z M614.7,586.3c-7.2,0-13,2.4-17.4,7.1
				c-4.5,4.7-6.7,11.3-6.7,19.6c0,8.5,2.2,15.2,6.7,19.9c4.5,4.7,10.3,7.1,17.4,7.1c6.9,0,12.6-2.4,17.1-7.2
				c4.5-4.8,6.8-11.4,6.8-19.8c0-8.2-2.3-14.7-6.8-19.5C627.3,588.7,621.6,586.3,614.7,586.3z M599.9,546.3c9.1,0,17.1,2,23.8,5.9
				c6.7,4,11.7,9.4,15,16.4v-20.7h45.5v130.5h-45.5v-20.7c-3.3,7-8.2,12.5-15,16.4c-6.7,4-14.7,5.9-23.8,5.9
				c-10.4,0-19.8-2.6-28.1-8c-8.4-5.4-14.9-13.1-19.8-23.2c-4.8-10.1-7.2-22-7.2-35.7s2.4-25.5,7.2-35.6
				c4.8-10.1,11.4-17.8,19.8-23.1C580.2,548.9,589.6,546.3,599.9,546.3z M531.2,639.7v39.1h-18.9c-16.1,0-28.6-4-37.6-11.9
				c-9-7.9-13.5-21-13.5-39.4v-41.2h-16.8v-38.2h16.8v-31.7h46v31.7h23.6v38.2h-23.6v42.1c0,4,0.9,6.9,2.7,8.6
				c1.8,1.7,4.8,2.6,9,2.6L531.2,639.7L531.2,639.7z M371.4,550.8V578h53.4v34.6h-53.4v29.8h60.4v36.5H325.5V514.3h106.3v36.5
				L371.4,550.8L371.4,550.8z" />
			</defs>
			<clipPath id="SVGID_2_">
				<use xlink:href="#SVGID_1_" style="overflow:visible;" />
			</clipPath>
			<rect x="322.7" y="503.5" class="st0" width="999.7" height="179.2" />
		</g>
	</g>
</svg>