<?xml version="1.0" encoding="utf-8" ?>
<!-- Generator: Adobe Illustrator 19.2.0, SVG Export Plug-In . SVG Version: 6.00 Build 0)  -->
<svg width="1600px" height="1200px" version="1.1" id="Layer_1" xmlns="http://www.w3.org/2000/svg" xmlns:xlink="http://www.w3.org/1999/xlink" x="0px" y="0px" viewBox="0 0 1600 1200" style="enable-background:new 0 0 1600 1200;" xml:space="preserve">
	<style type="text/css">
	.st0{fill:#FF0000;}
</style>
	<title>Custom Preset</title>
	<desc>Created with Sketch.</desc>
	<g id="Custom-Preset">
		<g id="Alienation" transform="translate(300.000000, 523.000000)">
			<path id="Shape" class="st0" d="M97.8,151.3l-15.9-36.5H22.5L6.6,151.3H0.8L63.5,8.4h12.4l62.4,142.9H97.8z M24.3,110.6h55.9
			l-28-64.3L24.3,110.6z M150,151.3V8.2l38.4-5.9v149H150z M230,40.4c-11.8,0-20.6-8.6-20.6-20S218.2,0.6,230,0.6
			c11.2,0,19.4,8.4,19.4,19.8S241.2,40.4,230,40.4z M210.2,151.3V54.1l38.4-5.9v103.1H210.2z M335.7,146.8
			c11.8,0,22.4-5.7,28.4-15.7h4.7c-6.3,13.3-23.7,22.2-43.9,22.2c-35.1,0-60-22.9-60-53.3c0-30,24.5-52.9,55.1-52.9
			c30.2,0,51.8,22,51.8,51.4h-67.8C304.7,131.9,315.9,146.8,335.7,146.8z M320.8,51.3c-10.4,0-16.5,18.6-16.7,43.3h32.2
			C335.9,67.2,330.2,51.3,320.8,51.3z M459.6,47.2c19.4,0,34.1,14.3,34.1,33.3v70.8h-38.4V71.7c0-7.6-4.9-13.3-11.4-13.3
			c-7.3,0-14.5,5.9-18.4,15.1v77.8h-38.4V54.1l38.4-5.9v16.7C432.5,54.3,445.1,47.2,459.6,47.2z M560.8,47.2
			c31,0,53.3,16.7,53.3,38.8v65.3h-38.4v-13.7c-6.9,9.4-20.2,15.7-34.3,15.7c-19.6,0-34.7-12.4-34.7-28.8c0-16.9,18-29.6,41.8-29.6
			c10.8,0,21.8,2.7,27.1,6.3V76.8c0-14.5-9.8-23.3-26.5-23.3c-15.9,0-29.8,9.4-29.8,22h-4.3C515.1,59.4,534.9,47.2,560.8,47.2z
			 M560.4,141.1c6.3,0,11.8-3.5,15.3-9.2v-26.1c-2.9-2.4-7.1-4.1-12-4.1c-10.8,0-17.8,7.6-17.8,20.4
			C545.9,133.3,551.7,141.1,560.4,141.1z M696.8,134.7h4.3c0,10.4-13.5,18.6-31.2,18.6c-20.2,0-34.7-12.2-34.7-28.6V53.3h-11.6v-4.1
			h11.6V27.6l38.4-7.8v29.4h23.7v4.1h-23.7v77.6c0,8,4.9,13.9,11.6,13.9C691.7,144.7,696.8,140.4,696.8,134.7z M729.4,40.4
			c-11.8,0-20.6-8.6-20.6-20s8.8-19.8,20.6-19.8c11.2,0,19.4,8.4,19.4,19.8S740.6,40.4,729.4,40.4z M709.6,151.3V54.1l38.4-5.9
			v103.1H709.6z M821,153.3c-32.2,0-56.7-22.9-56.7-53.1s24.5-53.1,56.7-53.1c32.4,0,56.7,22.9,56.7,53.1S853.5,153.3,821,153.3z
			 M821,149.2c11,0,17.6-18,17.6-49s-6.5-49-17.6-49c-11,0-17.6,18-17.6,49S810,149.2,821,149.2z M965.5,47.2
			c19.4,0,34.1,14.3,34.1,33.3v70.8h-38.4V71.7c0-7.6-4.9-13.3-11.4-13.3c-7.3,0-14.5,5.9-18.4,15.1v77.8h-38.4V54.1l38.4-5.9v16.7
			C938.4,54.3,951,47.2,965.5,47.2z" />
		</g>
	</g>
</svg>